<svg id="svg" version="1.1" xmlns="http://www.w3.org/2000/svg" xmlns:xlink="http://www.w3.org/1999/xlink" width="400" height="400" viewBox="0, 0, 400,400"><g id="svgg"><path id="path0" d="M270.200 40.000 C 269.626 40.634,268.968 40.800,267.027 40.800 C 265.073 40.800,264.439 40.962,263.893 41.600 C 263.394 42.182,262.713 42.400,261.391 42.400 C 260.146 42.400,259.503 42.589,259.345 43.000 C 259.214 43.340,258.618 43.600,257.971 43.600 C 257.238 43.600,256.675 43.886,256.400 44.400 C 256.146 44.875,255.562 45.200,254.965 45.200 C 253.537 45.200,243.600 55.197,243.600 56.634 C 243.600 57.179,243.330 57.729,243.000 57.855 C 242.670 57.982,242.400 58.518,242.400 59.047 C 242.400 59.575,242.040 60.316,241.600 60.693 C 241.160 61.070,240.800 61.790,240.800 62.293 C 240.800 62.796,240.440 63.516,240.000 63.893 C 239.322 64.473,239.200 65.073,239.200 67.827 C 239.200 70.568,239.075 71.189,238.400 71.800 C 237.630 72.497,237.600 73.032,237.600 85.973 C 237.600 98.927,237.629 99.447,238.400 100.107 C 239.080 100.690,239.200 101.287,239.200 104.100 C 239.200 106.974,239.305 107.473,240.000 107.907 C 240.485 108.210,240.800 108.840,240.800 109.507 C 240.800 110.174,241.115 110.804,241.600 111.107 C 242.040 111.382,242.400 112.033,242.400 112.554 C 242.400 113.076,242.670 113.726,243.000 114.000 C 243.330 114.274,243.600 114.884,243.600 115.355 C 243.600 116.513,253.485 126.400,254.644 126.400 C 255.101 126.400,255.802 126.760,256.200 127.200 C 256.598 127.640,257.345 128.000,257.859 128.000 C 258.373 128.000,259.018 128.360,259.293 128.800 C 259.678 129.417,260.226 129.600,261.682 129.600 C 263.162 129.600,263.665 129.773,264.000 130.400 C 264.365 131.082,264.838 131.200,267.200 131.200 C 269.562 131.200,270.035 131.318,270.400 132.000 C 270.811 132.768,271.238 132.800,281.152 132.800 C 290.968 132.800,291.512 132.761,292.200 132.000 C 292.778 131.361,293.432 131.200,295.448 131.200 C 297.562 131.200,298.041 131.070,298.400 130.400 C 298.679 129.879,299.238 129.600,300.000 129.600 C 300.762 129.600,301.321 129.321,301.600 128.800 C 301.850 128.332,302.438 128.000,303.013 128.000 C 304.433 128.000,315.600 116.840,315.600 115.422 C 315.600 114.838,315.930 114.252,316.400 114.000 C 316.899 113.733,317.200 113.162,317.200 112.482 C 317.200 111.826,317.518 111.194,318.000 110.893 C 318.778 110.407,318.800 109.960,318.800 94.675 L 318.800 78.957 317.481 77.678 L 316.162 76.400 299.967 76.400 L 283.773 76.400 281.686 78.513 L 279.600 80.625 279.600 87.532 L 279.600 94.438 281.570 96.408 L 283.540 98.378 289.270 98.489 L 295.000 98.600 295.119 99.820 C 295.201 100.652,294.978 101.277,294.419 101.782 C 293.969 102.190,293.600 102.877,293.600 103.309 C 293.600 104.360,288.363 109.600,287.312 109.600 C 286.864 109.600,286.274 109.870,286.000 110.200 C 285.594 110.690,284.269 110.800,278.794 110.800 C 273.200 110.800,272.047 110.700,271.855 110.200 C 271.729 109.870,271.183 109.600,270.642 109.600 C 268.794 109.600,264.000 104.211,264.000 102.133 C 264.000 100.838,263.808 100.325,263.200 100.000 C 262.424 99.585,262.400 99.162,262.400 85.989 C 262.400 72.840,262.426 72.391,263.200 71.907 C 263.798 71.534,264.000 70.974,264.000 69.690 C 264.000 67.598,268.686 62.400,270.572 62.400 C 271.162 62.400,271.747 62.072,272.000 61.600 C 272.400 60.852,272.838 60.800,278.752 60.800 C 284.568 60.800,285.134 60.864,285.800 61.600 C 286.198 62.040,286.904 62.400,287.369 62.400 C 287.908 62.400,289.661 63.852,292.200 66.400 L 296.185 70.400 306.214 70.400 L 316.243 70.400 317.522 69.081 C 319.130 67.421,319.393 63.861,318.000 62.600 C 317.560 62.202,317.200 61.482,317.200 61.000 C 317.200 60.518,316.840 59.798,316.400 59.400 C 315.960 59.002,315.600 58.301,315.600 57.843 C 315.600 56.691,304.118 45.200,302.967 45.200 C 302.503 45.200,301.798 44.840,301.400 44.400 C 301.002 43.960,300.276 43.600,299.787 43.600 C 299.298 43.600,298.674 43.330,298.400 43.000 C 298.096 42.634,297.220 42.400,296.154 42.400 C 294.840 42.400,294.283 42.202,293.907 41.600 C 293.488 40.929,292.974 40.800,290.718 40.800 C 288.438 40.800,287.963 40.678,287.600 40.000 C 287.193 39.240,286.762 39.200,279.048 39.200 C 271.432 39.200,270.879 39.250,270.200 40.000 M82.275 41.922 L 81.200 43.044 81.200 86.753 L 81.200 130.462 82.369 131.631 L 83.538 132.800 114.800 132.800 L 146.062 132.800 147.231 131.631 L 148.400 130.462 148.400 121.834 L 148.400 113.207 147.141 112.003 L 145.881 110.800 125.341 110.800 L 104.800 110.800 104.800 76.899 L 104.800 42.997 103.636 41.899 L 102.472 40.800 92.911 40.800 L 83.350 40.800 82.275 41.922 M158.900 41.856 L 158.000 42.828 158.000 86.739 L 158.000 130.650 159.122 131.725 L 160.244 132.800 192.200 132.800 L 224.156 132.800 225.278 131.725 L 226.400 130.650 226.389 121.825 L 226.378 113.000 225.259 111.904 L 224.141 110.807 203.570 110.704 L 183.000 110.600 183.000 103.800 L 183.000 97.000 202.100 96.896 L 221.200 96.792 222.400 95.537 L 223.600 94.281 223.600 85.839 L 223.600 77.397 222.436 76.299 L 221.272 75.200 202.485 75.200 C 186.958 75.200,183.618 75.104,183.238 74.645 C 182.926 74.269,182.813 72.241,182.889 68.345 L 183.000 62.600 203.685 62.496 L 224.371 62.393 225.385 61.378 L 226.400 60.364 226.400 51.600 L 226.400 42.836 225.382 41.818 L 224.364 40.800 192.082 40.842 L 159.800 40.884 158.900 41.856 M73.075 155.922 L 72.000 157.044 72.000 200.047 L 72.000 243.050 73.122 244.125 L 74.244 245.200 106.304 245.200 L 138.364 245.200 139.382 244.182 L 140.400 243.164 140.393 235.082 C 140.386 227.100,140.374 226.989,139.437 226.100 L 138.487 225.200 118.122 225.200 L 97.757 225.200 96.478 223.881 L 95.200 222.562 95.200 217.161 C 95.200 213.494,95.354 211.606,95.680 211.280 C 96.040 210.920,100.861 210.800,114.916 210.800 L 133.672 210.800 134.836 209.701 L 136.000 208.603 136.000 200.000 L 136.000 191.397 134.836 190.299 L 133.672 189.200 114.916 189.200 C 100.861 189.200,96.040 189.080,95.680 188.720 C 95.354 188.394,95.200 186.497,95.200 182.798 L 95.200 177.357 96.519 176.078 L 97.838 174.800 117.355 174.800 L 136.872 174.800 138.036 173.701 L 139.200 172.603 139.200 164.871 L 139.200 157.138 138.031 155.969 L 136.862 154.800 105.506 154.800 L 74.150 154.800 73.075 155.922 M155.875 155.922 L 154.800 157.044 154.800 200.047 L 154.800 243.050 155.922 244.125 L 157.044 245.200 167.200 245.200 L 177.356 245.200 178.478 244.125 L 179.600 243.050 179.600 222.549 C 179.600 208.285,179.732 201.966,180.033 201.780 C 180.649 201.399,182.800 203.586,182.800 204.594 C 182.800 205.058,183.520 206.141,184.400 207.000 C 185.280 207.859,186.000 208.936,186.000 209.394 C 186.000 209.879,186.998 211.213,188.400 212.600 C 189.807 213.992,190.800 215.320,190.800 215.809 C 190.800 216.268,191.430 217.254,192.200 218.000 C 192.970 218.746,193.600 219.734,193.600 220.195 C 193.600 220.661,194.311 221.686,195.200 222.504 C 196.210 223.433,196.800 224.328,196.800 224.931 C 196.800 225.553,197.358 226.361,198.398 227.244 C 199.467 228.151,199.998 228.931,200.002 229.600 C 200.006 230.260,200.549 231.076,201.600 232.000 C 202.649 232.922,203.195 233.741,203.200 234.400 C 203.205 235.059,203.751 235.878,204.800 236.800 C 205.726 237.614,206.394 238.561,206.396 239.063 C 206.398 239.590,207.427 240.953,209.037 242.563 L 211.674 245.200 220.362 245.200 L 229.050 245.200 230.125 244.078 L 231.200 242.956 231.200 200.000 L 231.200 157.044 230.125 155.922 L 229.050 154.800 218.743 154.800 L 208.436 154.800 207.418 155.818 L 206.400 156.836 206.394 177.118 C 206.390 189.036,206.233 197.645,206.013 197.993 C 205.516 198.779,203.200 196.650,203.200 195.406 C 203.200 194.942,202.480 193.859,201.600 193.000 C 200.720 192.141,199.997 191.069,199.993 190.619 C 199.990 190.168,199.270 189.093,198.393 188.230 C 197.517 187.366,196.800 186.303,196.800 185.867 C 196.800 185.432,196.080 184.369,195.200 183.507 C 194.320 182.644,193.600 181.564,193.600 181.107 C 193.600 180.649,192.880 179.569,192.000 178.707 C 191.120 177.844,190.400 176.780,190.400 176.342 C 190.400 175.905,189.770 174.952,189.000 174.226 C 188.167 173.440,187.598 172.520,187.596 171.953 C 187.594 171.346,187.014 170.491,186.000 169.600 C 184.951 168.678,184.405 167.859,184.400 167.200 C 184.395 166.541,183.849 165.722,182.800 164.800 C 181.878 163.989,181.206 163.038,181.204 162.540 C 181.201 161.996,179.934 160.414,177.760 158.240 L 174.320 154.800 165.635 154.800 L 156.950 154.800 155.875 155.922 M249.500 155.944 L 248.400 157.067 248.400 200.035 L 248.400 243.003 249.564 244.101 L 250.728 245.200 275.075 245.200 C 298.927 245.200,299.436 245.184,300.107 244.400 C 300.603 243.821,301.287 243.600,302.582 243.600 C 303.962 243.600,304.470 243.417,304.800 242.800 C 305.067 242.301,305.638 242.000,306.318 242.000 C 306.974 242.000,307.606 241.682,307.907 241.200 C 308.219 240.700,308.840 240.400,309.561 240.400 C 310.217 240.400,310.814 240.141,310.945 239.800 C 311.071 239.470,311.612 239.200,312.146 239.200 C 313.444 239.200,322.000 230.750,322.000 229.468 C 322.000 228.981,322.620 228.025,323.400 227.310 C 324.290 226.492,324.800 225.657,324.800 225.016 C 324.800 224.440,325.143 223.792,325.600 223.507 C 326.197 223.134,326.400 222.574,326.400 221.300 C 326.400 220.087,326.632 219.394,327.200 218.907 C 327.978 218.241,328.000 217.727,328.000 200.000 C 328.000 182.273,327.978 181.759,327.200 181.093 C 326.632 180.606,326.400 179.913,326.400 178.700 C 326.400 177.426,326.197 176.866,325.600 176.493 C 325.143 176.208,324.800 175.560,324.800 174.984 C 324.800 174.343,324.290 173.508,323.400 172.690 C 322.620 171.975,322.000 171.019,322.000 170.532 C 322.000 169.250,313.444 160.800,312.146 160.800 C 311.612 160.800,311.071 160.530,310.945 160.200 C 310.814 159.859,310.217 159.600,309.561 159.600 C 308.840 159.600,308.219 159.300,307.907 158.800 C 307.606 158.318,306.974 158.000,306.318 158.000 C 305.638 158.000,305.067 157.699,304.800 157.200 C 304.470 156.583,303.962 156.400,302.582 156.400 C 301.287 156.400,300.603 156.179,300.107 155.600 C 299.436 154.816,298.934 154.800,275.011 154.811 L 250.600 154.822 249.500 155.944 M290.493 175.600 C 290.878 176.217,291.426 176.400,292.882 176.400 C 294.362 176.400,294.865 176.573,295.200 177.200 C 295.453 177.672,296.038 178.000,296.628 178.000 C 297.332 178.000,298.452 178.824,300.414 180.786 L 303.200 183.572 303.200 186.090 C 303.200 188.174,303.338 188.694,304.000 189.107 C 304.767 189.586,304.800 190.040,304.800 200.000 C 304.800 209.960,304.767 210.414,304.000 210.893 C 303.338 211.306,303.200 211.826,303.200 213.910 L 303.200 216.428 300.414 219.214 C 298.452 221.176,297.332 222.000,296.628 222.000 C 296.038 222.000,295.453 222.328,295.200 222.800 C 294.865 223.427,294.362 223.600,292.882 223.600 C 291.419 223.600,290.878 223.783,290.488 224.408 C 290.004 225.182,289.638 225.212,281.891 225.108 L 273.800 225.000 273.696 200.400 C 273.639 186.870,273.679 175.575,273.784 175.300 C 274.155 174.329,289.876 174.612,290.493 175.600 M97.100 270.809 C 95.950 271.993,95.200 273.129,95.200 273.687 C 95.200 274.193,94.840 274.832,94.400 275.107 C 93.777 275.496,93.600 276.040,93.600 277.561 C 93.600 278.928,93.420 279.583,93.000 279.745 C 92.670 279.871,92.400 280.403,92.400 280.925 C 92.400 281.448,92.040 282.202,91.600 282.600 C 91.042 283.105,90.800 283.832,90.800 285.000 C 90.800 286.168,90.558 286.895,90.000 287.400 C 89.434 287.912,89.200 288.632,89.200 289.859 C 89.200 291.160,89.000 291.718,88.400 292.093 C 87.783 292.478,87.600 293.026,87.600 294.482 C 87.600 295.962,87.427 296.465,86.800 296.800 C 86.166 297.139,86.000 297.638,86.000 299.200 C 86.000 300.762,85.834 301.261,85.200 301.600 C 84.573 301.935,84.400 302.438,84.400 303.918 C 84.400 305.374,84.217 305.922,83.600 306.307 C 83.000 306.682,82.800 307.240,82.800 308.541 C 82.800 309.768,82.566 310.488,82.000 311.000 C 81.442 311.505,81.200 312.232,81.200 313.400 C 81.200 314.568,80.958 315.295,80.400 315.800 C 79.960 316.198,79.600 316.906,79.600 317.373 C 79.600 317.840,79.240 318.530,78.800 318.907 C 78.231 319.394,78.000 320.087,78.000 321.307 C 78.000 322.527,77.769 323.220,77.200 323.707 C 76.625 324.200,76.400 324.887,76.400 326.153 C 76.400 327.350,76.208 327.988,75.800 328.145 C 75.389 328.303,75.200 328.946,75.200 330.191 C 75.200 331.513,74.982 332.194,74.400 332.693 C 73.840 333.172,73.600 333.873,73.600 335.027 C 73.600 336.168,73.354 336.899,72.800 337.400 C 72.234 337.912,72.000 338.632,72.000 339.859 C 72.000 341.160,71.800 341.718,71.200 342.093 C 70.583 342.478,70.400 343.026,70.400 344.482 C 70.400 345.962,70.227 346.465,69.600 346.800 C 68.966 347.139,68.800 347.638,68.800 349.200 C 68.800 350.762,68.634 351.261,68.000 351.600 C 67.479 351.879,67.200 352.438,67.200 353.200 C 67.200 353.962,66.921 354.521,66.400 354.800 C 65.099 355.496,65.290 358.353,66.729 359.732 L 67.859 360.815 77.629 360.707 L 87.400 360.600 87.535 359.413 C 87.609 358.760,88.014 357.985,88.435 357.691 C 88.883 357.377,89.200 356.684,89.200 356.020 C 89.200 355.381,89.462 354.785,89.800 354.655 C 90.130 354.529,90.400 353.997,90.400 353.475 C 90.400 352.952,90.760 352.198,91.200 351.800 C 91.640 351.402,92.000 350.689,92.000 350.216 C 92.000 349.744,92.594 348.782,93.319 348.078 L 94.638 346.800 111.820 346.800 L 129.003 346.800 130.101 347.964 C 130.706 348.604,131.200 349.476,131.200 349.902 C 131.200 350.328,131.560 351.002,132.000 351.400 C 132.440 351.798,132.800 352.518,132.800 353.000 C 132.800 353.482,133.160 354.202,133.600 354.600 C 134.040 354.998,134.400 355.718,134.400 356.200 C 134.400 356.682,134.750 357.393,135.177 357.780 C 135.605 358.167,136.010 358.959,136.077 359.542 L 136.200 360.600 145.875 360.707 L 155.550 360.814 156.575 359.789 C 157.792 358.571,158.082 355.071,157.000 354.655 C 156.670 354.529,156.400 353.997,156.400 353.475 C 156.400 352.952,156.040 352.198,155.600 351.800 C 155.042 351.295,154.800 350.568,154.800 349.400 C 154.800 348.232,154.558 347.505,154.000 347.000 C 153.434 346.488,153.200 345.768,153.200 344.541 C 153.200 343.240,153.000 342.682,152.400 342.307 C 151.783 341.922,151.600 341.374,151.600 339.918 C 151.600 338.438,151.427 337.935,150.800 337.600 C 150.166 337.261,150.000 336.762,150.000 335.200 C 150.000 333.638,149.834 333.139,149.200 332.800 C 148.573 332.465,148.400 331.962,148.400 330.482 C 148.400 329.026,148.217 328.478,147.600 328.093 C 147.000 327.718,146.800 327.160,146.800 325.859 C 146.800 324.632,146.566 323.912,146.000 323.400 C 145.442 322.895,145.200 322.168,145.200 321.000 C 145.200 319.832,144.958 319.105,144.400 318.600 C 143.960 318.202,143.600 317.494,143.600 317.027 C 143.600 316.560,143.240 315.870,142.800 315.493 C 142.231 315.006,142.000 314.313,142.000 313.093 C 142.000 311.873,141.769 311.180,141.200 310.693 C 140.625 310.200,140.400 309.513,140.400 308.247 C 140.400 307.050,140.208 306.412,139.800 306.255 C 139.389 306.097,139.200 305.454,139.200 304.209 C 139.200 302.887,138.982 302.206,138.400 301.707 C 137.840 301.228,137.600 300.527,137.600 299.373 C 137.600 298.232,137.354 297.501,136.800 297.000 C 136.242 296.495,136.000 295.768,136.000 294.600 C 136.000 293.432,135.758 292.705,135.200 292.200 C 134.636 291.689,134.400 290.968,134.400 289.752 C 134.400 288.438,134.210 287.926,133.600 287.600 C 132.966 287.261,132.800 286.762,132.800 285.200 C 132.800 283.638,132.634 283.139,132.000 282.800 C 131.479 282.521,131.200 281.962,131.200 281.200 C 131.200 280.438,130.921 279.879,130.400 279.600 C 129.773 279.265,129.600 278.762,129.600 277.282 C 129.600 275.826,129.417 275.278,128.800 274.893 C 128.360 274.618,128.000 273.983,128.000 273.482 C 128.000 272.922,127.260 271.841,126.086 270.685 L 124.173 268.800 111.586 268.826 L 99.000 268.851 97.100 270.809 M165.100 269.994 L 164.000 271.149 164.000 314.876 L 164.000 358.603 165.164 359.701 L 166.328 360.800 176.595 360.800 L 186.862 360.800 188.026 359.636 L 189.190 358.472 189.295 344.136 L 189.400 329.800 195.400 329.800 L 201.400 329.800 201.525 331.099 C 201.601 331.883,201.958 332.563,202.425 332.814 C 202.921 333.079,203.200 333.650,203.200 334.400 C 203.200 335.162,203.479 335.721,204.000 336.000 C 204.499 336.267,204.800 336.838,204.800 337.518 C 204.800 338.174,205.118 338.806,205.600 339.107 C 206.085 339.410,206.400 340.040,206.400 340.707 C 206.400 341.374,206.715 342.004,207.200 342.307 C 207.685 342.610,208.000 343.240,208.000 343.907 C 208.000 344.574,208.315 345.204,208.800 345.507 C 209.240 345.782,209.600 346.433,209.600 346.954 C 209.600 347.476,209.870 348.126,210.200 348.400 C 210.530 348.674,210.800 349.298,210.800 349.787 C 210.800 350.276,211.160 351.002,211.600 351.400 C 212.040 351.798,212.400 352.518,212.400 353.000 C 212.400 353.482,212.760 354.202,213.200 354.600 C 213.640 354.998,214.000 355.708,214.000 356.177 C 214.000 356.666,214.816 357.834,215.914 358.915 L 217.827 360.800 228.168 360.800 L 238.508 360.800 239.454 359.779 C 241.085 358.020,240.840 353.979,239.000 352.290 C 238.230 351.584,237.600 350.627,237.600 350.165 C 237.600 349.702,237.240 348.998,236.800 348.600 C 236.360 348.202,236.000 347.482,236.000 347.000 C 236.000 346.518,235.640 345.798,235.200 345.400 C 234.760 345.002,234.400 344.282,234.400 343.800 C 234.400 343.318,234.040 342.598,233.600 342.200 C 233.160 341.802,232.800 341.082,232.800 340.600 C 232.800 340.118,232.440 339.398,232.000 339.000 C 231.560 338.602,231.200 337.894,231.200 337.427 C 231.200 336.960,230.840 336.270,230.400 335.893 C 229.960 335.516,229.600 334.762,229.600 334.218 C 229.600 333.638,229.269 333.051,228.800 332.800 C 228.279 332.521,228.000 331.962,228.000 331.200 C 228.000 330.438,227.721 329.879,227.200 329.600 C 226.701 329.333,226.400 328.762,226.400 328.082 C 226.400 327.409,226.079 326.792,225.561 326.469 C 224.537 325.829,226.297 323.631,227.850 323.611 C 229.112 323.595,236.000 316.654,236.000 315.399 C 236.000 314.838,236.337 314.248,236.800 314.000 C 237.321 313.721,237.600 313.162,237.600 312.400 C 237.600 311.638,237.879 311.079,238.400 310.800 C 239.031 310.462,239.200 309.962,239.200 308.429 C 239.200 307.070,239.381 306.416,239.800 306.255 C 240.301 306.063,240.400 304.898,240.400 299.200 C 240.400 293.502,240.301 292.337,239.800 292.145 C 239.392 291.988,239.200 291.350,239.200 290.153 C 239.200 288.887,238.975 288.200,238.400 287.707 C 237.960 287.330,237.600 286.610,237.600 286.107 C 237.600 285.604,237.240 284.884,236.800 284.507 C 236.360 284.130,235.997 283.457,235.994 283.011 C 235.986 281.812,229.345 275.200,228.149 275.200 C 227.631 275.200,226.982 274.840,226.707 274.400 C 226.404 273.915,225.774 273.600,225.107 273.600 C 224.440 273.600,223.810 273.285,223.507 272.800 C 223.122 272.183,222.574 272.000,221.118 272.000 C 219.638 272.000,219.135 271.827,218.800 271.200 C 218.414 270.479,217.962 270.400,214.248 270.400 C 210.632 270.400,210.035 270.301,209.400 269.600 C 208.693 268.819,208.181 268.800,187.438 268.819 L 166.200 268.839 165.100 269.994 M249.500 269.994 C 247.644 271.943,247.877 275.352,250.000 277.304 C 251.046 278.266,251.600 279.121,251.600 279.773 C 251.600 280.362,251.928 280.947,252.400 281.200 C 252.921 281.479,253.200 282.038,253.200 282.800 C 253.200 283.562,253.479 284.121,254.000 284.400 C 254.521 284.679,254.800 285.238,254.800 286.000 C 254.800 286.762,255.079 287.321,255.600 287.600 C 256.099 287.867,256.400 288.438,256.400 289.118 C 256.400 289.774,256.718 290.406,257.200 290.707 C 257.657 290.992,258.000 291.640,258.000 292.216 C 258.000 292.857,258.510 293.692,259.400 294.510 C 260.210 295.253,260.800 296.176,260.800 296.701 C 260.800 297.200,261.160 297.916,261.600 298.293 C 262.040 298.670,262.400 299.360,262.400 299.827 C 262.400 300.294,262.760 301.002,263.200 301.400 C 263.640 301.798,264.000 302.518,264.000 303.000 C 264.000 303.482,264.360 304.202,264.800 304.600 C 265.240 304.998,265.600 305.718,265.600 306.200 C 265.600 306.682,265.960 307.402,266.400 307.800 C 266.840 308.198,267.200 308.910,267.200 309.381 C 267.200 309.853,267.918 310.938,268.800 311.800 C 269.680 312.659,270.400 313.736,270.400 314.192 C 270.400 314.649,270.760 315.330,271.200 315.707 C 271.640 316.084,272.000 316.804,272.000 317.307 C 272.000 317.810,272.360 318.530,272.800 318.907 C 273.240 319.284,273.600 320.004,273.600 320.507 C 273.600 321.010,273.960 321.730,274.400 322.107 C 274.840 322.484,275.200 323.225,275.200 323.753 C 275.200 324.282,275.470 324.818,275.800 324.945 C 276.130 325.071,276.400 325.632,276.400 326.191 C 276.400 326.750,276.760 327.516,277.200 327.893 C 277.973 328.555,278.000 329.073,278.000 343.520 L 278.000 358.462 279.169 359.631 L 280.338 360.800 290.605 360.800 L 300.872 360.800 302.036 359.701 L 303.200 358.603 303.200 343.515 C 303.200 328.838,303.222 328.417,304.000 328.000 C 304.499 327.733,304.800 327.162,304.800 326.482 C 304.800 325.826,305.118 325.194,305.600 324.893 C 306.100 324.581,306.400 323.960,306.400 323.239 C 306.400 322.583,306.659 321.986,307.000 321.855 C 307.330 321.729,307.600 321.168,307.600 320.609 C 307.600 320.050,307.960 319.284,308.400 318.907 C 308.840 318.530,309.200 317.840,309.200 317.373 C 309.200 316.906,309.560 316.198,310.000 315.800 C 310.440 315.402,310.800 314.690,310.800 314.219 C 310.800 313.747,311.518 312.662,312.400 311.800 C 313.282 310.938,314.000 309.853,314.000 309.381 C 314.000 308.910,314.360 308.198,314.800 307.800 C 315.240 307.402,315.600 306.682,315.600 306.200 C 315.600 305.718,315.960 304.998,316.400 304.600 C 316.840 304.202,317.200 303.482,317.200 303.000 C 317.200 302.518,317.560 301.798,318.000 301.400 C 318.440 301.002,318.800 300.294,318.800 299.827 C 318.800 299.360,319.160 298.670,319.600 298.293 C 320.040 297.916,320.400 297.232,320.400 296.773 C 320.400 296.313,321.120 295.224,322.000 294.353 C 322.965 293.398,323.600 292.395,323.600 291.827 C 323.600 291.309,323.870 290.782,324.200 290.655 C 324.530 290.529,324.800 289.968,324.800 289.409 C 324.800 288.850,325.160 288.084,325.600 287.707 C 326.040 287.330,326.400 286.610,326.400 286.107 C 326.400 285.604,326.760 284.884,327.200 284.507 C 327.640 284.130,328.000 283.440,328.000 282.973 C 328.000 282.506,328.360 281.798,328.800 281.400 C 329.240 281.002,329.600 280.290,329.600 279.819 C 329.600 279.347,330.318 278.262,331.200 277.400 C 333.362 275.289,333.558 271.897,331.631 269.969 L 330.462 268.800 320.927 268.800 C 311.826 268.800,311.370 268.836,310.893 269.600 C 310.618 270.040,310.000 270.400,309.518 270.400 C 308.350 270.400,306.400 272.320,306.400 273.471 C 306.400 273.978,306.040 274.618,305.600 274.893 C 305.115 275.196,304.800 275.826,304.800 276.493 C 304.800 277.160,304.485 277.790,304.000 278.093 C 303.518 278.394,303.200 279.026,303.200 279.682 C 303.200 280.362,302.899 280.933,302.400 281.200 C 301.879 281.479,301.600 282.038,301.600 282.800 C 301.600 283.562,301.321 284.121,300.800 284.400 C 300.279 284.679,300.000 285.238,300.000 286.000 C 300.000 286.762,299.721 287.321,299.200 287.600 C 298.701 287.867,298.400 288.438,298.400 289.118 C 298.400 289.774,298.082 290.406,297.600 290.707 C 297.115 291.010,296.800 291.640,296.800 292.307 C 296.800 292.974,296.485 293.604,296.000 293.907 C 295.560 294.182,295.200 294.827,295.200 295.341 C 295.200 295.855,294.840 296.602,294.400 297.000 C 293.960 297.398,293.600 298.124,293.600 298.613 C 293.600 299.102,293.330 299.726,293.000 300.000 C 292.670 300.274,292.400 300.904,292.400 301.400 C 292.400 303.416,289.506 303.918,289.277 301.942 C 289.210 301.359,288.805 300.567,288.377 300.180 C 287.950 299.793,287.600 299.082,287.600 298.600 C 287.600 298.118,287.240 297.398,286.800 297.000 C 286.360 296.602,286.000 295.882,286.000 295.400 C 286.000 294.918,285.640 294.198,285.200 293.800 C 284.760 293.402,284.400 292.682,284.400 292.200 C 284.400 291.718,284.040 290.998,283.600 290.600 C 283.160 290.202,282.800 289.455,282.800 288.941 C 282.800 288.427,282.440 287.782,282.000 287.507 C 281.518 287.206,281.200 286.574,281.200 285.918 C 281.200 285.238,280.899 284.667,280.400 284.400 C 279.879 284.121,279.600 283.562,279.600 282.800 C 279.600 282.038,279.321 281.479,278.800 281.200 C 278.279 280.921,278.000 280.362,278.000 279.600 C 278.000 278.838,277.721 278.279,277.200 278.000 C 276.701 277.733,276.400 277.162,276.400 276.482 C 276.400 275.826,276.082 275.194,275.600 274.893 C 275.154 274.614,274.800 273.960,274.800 273.415 C 274.800 272.159,273.048 270.400,271.796 270.400 C 271.238 270.400,270.647 270.062,270.400 269.600 C 269.989 268.833,269.573 268.801,260.286 268.819 L 250.600 268.839 249.500 269.994 M210.693 291.200 C 211.070 291.640,211.683 292.000,212.056 292.000 C 213.416 292.000,214.000 292.489,214.000 293.629 C 214.000 294.362,214.286 294.925,214.800 295.200 C 215.989 295.836,216.010 302.552,214.825 303.186 C 214.358 303.437,214.001 304.117,213.925 304.901 C 213.815 306.043,213.643 306.215,212.501 306.325 C 211.712 306.401,211.037 306.758,210.783 307.232 C 210.382 307.981,209.930 308.009,199.882 307.907 L 189.400 307.800 189.292 299.429 C 189.208 292.999,189.301 290.983,189.692 290.735 C 190.958 289.931,209.967 290.352,210.693 291.200 M112.400 298.162 C 112.400 298.665,112.760 299.402,113.200 299.800 C 113.758 300.305,114.000 301.032,114.000 302.200 C 114.000 303.368,114.242 304.095,114.800 304.600 C 115.358 305.105,115.600 305.832,115.600 307.000 C 115.600 308.168,115.842 308.895,116.400 309.400 C 116.964 309.911,117.200 310.632,117.200 311.848 C 117.200 313.162,117.390 313.674,118.000 314.000 C 118.634 314.339,118.800 314.838,118.800 316.400 C 118.800 317.962,118.966 318.461,119.600 318.800 C 120.227 319.135,120.400 319.638,120.400 321.118 C 120.400 322.593,120.581 323.120,121.225 323.523 C 121.796 323.879,122.011 324.370,121.925 325.119 L 121.800 326.200 111.800 326.200 L 101.800 326.200 101.681 325.179 C 101.607 324.543,101.871 323.879,102.381 323.417 C 102.958 322.895,103.200 322.181,103.200 321.000 C 103.200 319.832,103.442 319.105,104.000 318.600 C 104.554 318.099,104.800 317.368,104.800 316.227 C 104.800 315.073,105.040 314.372,105.600 313.893 C 106.182 313.394,106.400 312.713,106.400 311.391 C 106.400 310.146,106.589 309.503,107.000 309.345 C 107.408 309.188,107.600 308.550,107.600 307.353 C 107.600 306.087,107.825 305.400,108.400 304.907 C 108.969 304.420,109.200 303.727,109.200 302.507 C 109.200 301.287,109.431 300.594,110.000 300.107 C 110.440 299.730,110.800 299.048,110.800 298.591 C 110.800 297.653,111.556 296.725,112.064 297.040 C 112.249 297.154,112.400 297.659,112.400 298.162 " stroke="none" fill="#cccccc" fill-rule="evenodd"></path><path id="path1" d="M26.100 8.665 C 25.825 8.776,25.600 9.122,25.600 9.433 C 25.600 9.854,25.031 10.000,23.400 10.000 C 21.467 10.000,21.200 10.097,21.200 10.800 C 21.200 11.467,20.933 11.600,19.600 11.600 C 18.267 11.600,18.000 11.733,18.000 12.400 C 18.000 12.933,17.733 13.200,17.200 13.200 C 16.667 13.200,16.400 13.467,16.400 14.000 C 16.400 14.533,16.133 14.800,15.600 14.800 C 15.067 14.800,14.800 15.067,14.800 15.600 C 14.800 16.133,14.533 16.400,14.000 16.400 C 13.467 16.400,13.200 16.667,13.200 17.200 C 13.200 17.733,12.933 18.000,12.400 18.000 C 11.733 18.000,11.600 18.267,11.600 19.600 C 11.600 20.933,11.467 21.200,10.800 21.200 C 10.097 21.200,10.000 21.467,10.000 23.400 C 10.000 25.014,9.852 25.600,9.443 25.600 C 9.136 25.600,8.776 25.885,8.643 26.233 C 8.325 27.060,8.325 180.540,8.643 181.367 C 8.798 181.772,9.374 182.000,10.243 182.000 C 11.333 182.000,11.600 182.157,11.600 182.800 C 11.600 183.467,11.867 183.600,13.200 183.600 C 14.533 183.600,14.800 183.733,14.800 184.400 C 14.800 184.933,15.067 185.200,15.600 185.200 C 16.133 185.200,16.400 185.467,16.400 186.000 C 16.400 186.533,16.667 186.800,17.200 186.800 C 17.733 186.800,18.000 187.067,18.000 187.600 C 18.000 188.133,18.267 188.400,18.800 188.400 C 19.333 188.400,19.600 188.667,19.600 189.200 C 19.600 189.733,19.867 190.000,20.400 190.000 C 21.048 190.000,21.200 190.267,21.200 191.400 C 21.200 192.533,21.352 192.800,22.000 192.800 C 22.770 192.800,22.800 193.067,22.800 200.000 C 22.800 206.933,22.770 207.200,22.000 207.200 C 21.352 207.200,21.200 207.467,21.200 208.600 C 21.200 209.733,21.048 210.000,20.400 210.000 C 19.867 210.000,19.600 210.267,19.600 210.800 C 19.600 211.333,19.333 211.600,18.800 211.600 C 18.267 211.600,18.000 211.867,18.000 212.400 C 18.000 212.933,17.733 213.200,17.200 213.200 C 16.667 213.200,16.400 213.467,16.400 214.000 C 16.400 214.533,16.133 214.800,15.600 214.800 C 15.067 214.800,14.800 215.067,14.800 215.600 C 14.800 216.267,14.533 216.400,13.200 216.400 C 11.867 216.400,11.600 216.533,11.600 217.200 C 11.600 217.843,11.333 218.000,10.243 218.000 C 9.374 218.000,8.798 218.228,8.643 218.633 C 8.325 219.460,8.325 372.940,8.643 373.767 C 8.776 374.115,9.136 374.400,9.443 374.400 C 9.852 374.400,10.000 374.986,10.000 376.600 C 10.000 378.533,10.097 378.800,10.800 378.800 C 11.467 378.800,11.600 379.067,11.600 380.400 C 11.600 381.733,11.733 382.000,12.400 382.000 C 12.933 382.000,13.200 382.267,13.200 382.800 C 13.200 383.333,13.467 383.600,14.000 383.600 C 14.533 383.600,14.800 383.867,14.800 384.400 C 14.800 384.933,15.067 385.200,15.600 385.200 C 16.133 385.200,16.400 385.467,16.400 386.000 C 16.400 386.533,16.667 386.800,17.200 386.800 C 17.733 386.800,18.000 387.067,18.000 387.600 C 18.000 388.267,18.267 388.400,19.600 388.400 C 20.933 388.400,21.200 388.533,21.200 389.200 C 21.200 389.903,21.467 390.000,23.400 390.000 C 25.014 390.000,25.600 390.148,25.600 390.557 C 25.600 391.578,26.626 391.600,74.200 391.600 C 121.377 391.600,122.800 391.571,122.800 390.604 C 122.800 390.323,123.160 389.999,123.600 389.884 C 124.213 389.724,124.400 389.338,124.400 388.237 C 124.400 387.226,124.578 386.800,125.000 386.800 C 125.333 386.800,125.600 386.444,125.600 386.000 C 125.600 385.467,125.867 385.200,126.400 385.200 C 126.933 385.200,127.200 384.933,127.200 384.400 C 127.200 383.867,127.467 383.600,128.000 383.600 C 128.533 383.600,128.800 383.333,128.800 382.800 C 128.800 382.267,129.067 382.000,129.600 382.000 C 130.133 382.000,130.400 381.733,130.400 381.200 C 130.400 380.667,130.667 380.400,131.200 380.400 C 131.733 380.400,132.000 380.133,132.000 379.600 C 132.000 378.933,132.267 378.800,133.600 378.800 C 134.933 378.800,135.200 378.667,135.200 378.000 C 135.200 377.203,135.467 377.200,200.000 377.200 C 264.533 377.200,264.800 377.203,264.800 378.000 C 264.800 378.667,265.067 378.800,266.400 378.800 C 267.733 378.800,268.000 378.933,268.000 379.600 C 268.000 380.133,268.267 380.400,268.800 380.400 C 269.333 380.400,269.600 380.667,269.600 381.200 C 269.600 381.733,269.867 382.000,270.400 382.000 C 270.933 382.000,271.200 382.267,271.200 382.800 C 271.200 383.333,271.467 383.600,272.000 383.600 C 272.533 383.600,272.800 383.867,272.800 384.400 C 272.800 384.933,273.067 385.200,273.600 385.200 C 274.133 385.200,274.400 385.467,274.400 386.000 C 274.400 386.444,274.667 386.800,275.000 386.800 C 275.422 386.800,275.600 387.226,275.600 388.237 C 275.600 389.338,275.787 389.724,276.400 389.884 C 276.840 389.999,277.200 390.323,277.200 390.604 C 277.200 391.571,278.623 391.600,325.800 391.600 C 373.374 391.600,374.400 391.578,374.400 390.557 C 374.400 390.148,374.986 390.000,376.600 390.000 C 378.533 390.000,378.800 389.903,378.800 389.200 C 378.800 388.533,379.067 388.400,380.400 388.400 C 381.733 388.400,382.000 388.267,382.000 387.600 C 382.000 387.067,382.267 386.800,382.800 386.800 C 383.333 386.800,383.600 386.533,383.600 386.000 C 383.600 385.467,383.867 385.200,384.400 385.200 C 384.933 385.200,385.200 384.933,385.200 384.400 C 385.200 383.867,385.467 383.600,386.000 383.600 C 386.533 383.600,386.800 383.333,386.800 382.800 C 386.800 382.267,387.067 382.000,387.600 382.000 C 388.267 382.000,388.400 381.733,388.400 380.400 C 388.400 379.067,388.533 378.800,389.200 378.800 C 389.903 378.800,390.000 378.533,390.000 376.600 C 390.000 374.986,390.148 374.400,390.557 374.400 C 390.864 374.400,391.224 374.115,391.357 373.767 C 391.675 372.940,391.675 219.460,391.357 218.633 C 391.202 218.228,390.626 218.000,389.757 218.000 C 388.667 218.000,388.400 217.843,388.400 217.200 C 388.400 216.533,388.133 216.400,386.800 216.400 C 385.467 216.400,385.200 216.267,385.200 215.600 C 385.200 215.067,384.933 214.800,384.400 214.800 C 383.867 214.800,383.600 214.533,383.600 214.000 C 383.600 213.467,383.333 213.200,382.800 213.200 C 382.267 213.200,382.000 212.933,382.000 212.400 C 382.000 211.867,381.733 211.600,381.200 211.600 C 380.667 211.600,380.400 211.333,380.400 210.800 C 380.400 210.267,380.133 210.000,379.600 210.000 C 378.952 210.000,378.800 209.733,378.800 208.600 C 378.800 207.467,378.648 207.200,378.000 207.200 C 377.230 207.200,377.200 206.933,377.200 200.000 C 377.200 193.067,377.230 192.800,378.000 192.800 C 378.648 192.800,378.800 192.533,378.800 191.400 C 378.800 190.267,378.952 190.000,379.600 190.000 C 380.133 190.000,380.400 189.733,380.400 189.200 C 380.400 188.667,380.667 188.400,381.200 188.400 C 381.733 188.400,382.000 188.133,382.000 187.600 C 382.000 187.067,382.267 186.800,382.800 186.800 C 383.333 186.800,383.600 186.533,383.600 186.000 C 383.600 185.467,383.867 185.200,384.400 185.200 C 384.933 185.200,385.200 184.933,385.200 184.400 C 385.200 183.733,385.467 183.600,386.800 183.600 C 388.133 183.600,388.400 183.467,388.400 182.800 C 388.400 182.157,388.667 182.000,389.757 182.000 C 390.626 182.000,391.202 181.772,391.357 181.367 C 391.675 180.540,391.675 27.060,391.357 26.233 C 391.224 25.885,390.864 25.600,390.557 25.600 C 390.148 25.600,390.000 25.014,390.000 23.400 C 390.000 21.467,389.903 21.200,389.200 21.200 C 388.533 21.200,388.400 20.933,388.400 19.600 C 388.400 18.267,388.267 18.000,387.600 18.000 C 387.067 18.000,386.800 17.733,386.800 17.200 C 386.800 16.667,386.533 16.400,386.000 16.400 C 385.467 16.400,385.200 16.133,385.200 15.600 C 385.200 15.067,384.933 14.800,384.400 14.800 C 383.867 14.800,383.600 14.533,383.600 14.000 C 383.600 13.467,383.333 13.200,382.800 13.200 C 382.267 13.200,382.000 12.933,382.000 12.400 C 382.000 11.733,381.733 11.600,380.400 11.600 C 379.067 11.600,378.800 11.467,378.800 10.800 C 378.800 10.097,378.533 10.000,376.600 10.000 C 374.986 10.000,374.400 9.852,374.400 9.443 C 374.400 8.422,373.374 8.400,325.800 8.400 C 278.623 8.400,277.200 8.429,277.200 9.396 C 277.200 9.677,276.840 10.001,276.400 10.116 C 275.787 10.276,275.600 10.662,275.600 11.763 C 275.600 12.774,275.422 13.200,275.000 13.200 C 274.667 13.200,274.400 13.556,274.400 14.000 C 274.400 14.533,274.133 14.800,273.600 14.800 C 273.067 14.800,272.800 15.067,272.800 15.600 C 272.800 16.133,272.533 16.400,272.000 16.400 C 271.467 16.400,271.200 16.667,271.200 17.200 C 271.200 17.733,270.933 18.000,270.400 18.000 C 269.867 18.000,269.600 18.267,269.600 18.800 C 269.600 19.333,269.333 19.600,268.800 19.600 C 268.267 19.600,268.000 19.867,268.000 20.400 C 268.000 21.067,267.733 21.200,266.400 21.200 C 265.067 21.200,264.800 21.333,264.800 22.000 C 264.800 22.797,264.533 22.800,200.000 22.800 C 135.467 22.800,135.200 22.797,135.200 22.000 C 135.200 21.333,134.933 21.200,133.600 21.200 C 132.267 21.200,132.000 21.067,132.000 20.400 C 132.000 19.867,131.733 19.600,131.200 19.600 C 130.667 19.600,130.400 19.333,130.400 18.800 C 130.400 18.267,130.133 18.000,129.600 18.000 C 129.067 18.000,128.800 17.733,128.800 17.200 C 128.800 16.667,128.533 16.400,128.000 16.400 C 127.467 16.400,127.200 16.133,127.200 15.600 C 127.200 15.067,126.933 14.800,126.400 14.800 C 125.867 14.800,125.600 14.533,125.600 14.000 C 125.600 13.556,125.333 13.200,125.000 13.200 C 124.578 13.200,124.400 12.774,124.400 11.763 C 124.400 10.662,124.213 10.276,123.600 10.116 C 123.160 10.001,122.800 9.677,122.800 9.396 C 122.800 9.115,122.515 8.776,122.167 8.643 C 121.411 8.352,26.821 8.374,26.100 8.665 M287.600 40.000 C 287.963 40.678,288.438 40.800,290.718 40.800 C 292.974 40.800,293.488 40.929,293.907 41.600 C 294.283 42.202,294.840 42.400,296.154 42.400 C 297.220 42.400,298.096 42.634,298.400 43.000 C 298.674 43.330,299.298 43.600,299.787 43.600 C 300.276 43.600,301.002 43.960,301.400 44.400 C 301.798 44.840,302.503 45.200,302.967 45.200 C 304.118 45.200,315.600 56.691,315.600 57.843 C 315.600 58.301,315.960 59.002,316.400 59.400 C 316.840 59.798,317.200 60.518,317.200 61.000 C 317.200 61.482,317.560 62.202,318.000 62.600 C 319.393 63.861,319.130 67.421,317.522 69.081 L 316.243 70.400 306.214 70.400 L 296.185 70.400 292.200 66.400 C 289.661 63.852,287.908 62.400,287.369 62.400 C 286.904 62.400,286.198 62.040,285.800 61.600 C 285.134 60.864,284.568 60.800,278.752 60.800 C 272.838 60.800,272.400 60.852,272.000 61.600 C 271.747 62.072,271.162 62.400,270.572 62.400 C 268.686 62.400,264.000 67.598,264.000 69.690 C 264.000 70.974,263.798 71.534,263.200 71.907 C 262.426 72.391,262.400 72.840,262.400 85.989 C 262.400 99.162,262.424 99.585,263.200 100.000 C 263.808 100.325,264.000 100.838,264.000 102.133 C 264.000 104.211,268.794 109.600,270.642 109.600 C 271.183 109.600,271.729 109.870,271.855 110.200 C 272.047 110.700,273.200 110.800,278.794 110.800 C 284.269 110.800,285.594 110.690,286.000 110.200 C 286.274 109.870,286.864 109.600,287.312 109.600 C 288.363 109.600,293.600 104.360,293.600 103.309 C 293.600 102.877,293.969 102.190,294.419 101.782 C 294.978 101.277,295.201 100.652,295.119 99.820 L 295.000 98.600 289.270 98.489 L 283.540 98.378 281.570 96.408 L 279.600 94.438 279.600 87.532 L 279.600 80.625 281.686 78.513 L 283.773 76.400 299.967 76.400 L 316.162 76.400 317.481 77.678 L 318.800 78.957 318.800 94.675 C 318.800 109.960,318.778 110.407,318.000 110.893 C 317.518 111.194,317.200 111.826,317.200 112.482 C 317.200 113.162,316.899 113.733,316.400 114.000 C 315.930 114.252,315.600 114.838,315.600 115.422 C 315.600 116.840,304.433 128.000,303.013 128.000 C 302.438 128.000,301.850 128.332,301.600 128.800 C 301.321 129.321,300.762 129.600,300.000 129.600 C 299.238 129.600,298.679 129.879,298.400 130.400 C 298.041 131.070,297.562 131.200,295.448 131.200 C 293.432 131.200,292.778 131.361,292.200 132.000 C 291.512 132.761,290.968 132.800,281.152 132.800 C 271.238 132.800,270.811 132.768,270.400 132.000 C 270.035 131.318,269.562 131.200,267.200 131.200 C 264.838 131.200,264.365 131.082,264.000 130.400 C 263.665 129.773,263.162 129.600,261.682 129.600 C 260.226 129.600,259.678 129.417,259.293 128.800 C 259.018 128.360,258.373 128.000,257.859 128.000 C 257.345 128.000,256.598 127.640,256.200 127.200 C 255.802 126.760,255.101 126.400,254.644 126.400 C 253.485 126.400,243.600 116.513,243.600 115.355 C 243.600 114.884,243.330 114.274,243.000 114.000 C 242.670 113.726,242.400 113.076,242.400 112.554 C 242.400 112.033,242.040 111.382,241.600 111.107 C 241.115 110.804,240.800 110.174,240.800 109.507 C 240.800 108.840,240.485 108.210,240.000 107.907 C 239.305 107.473,239.200 106.974,239.200 104.100 C 239.200 101.287,239.080 100.690,238.400 100.107 C 237.629 99.447,237.600 98.927,237.600 85.973 C 237.600 73.032,237.630 72.497,238.400 71.800 C 239.075 71.189,239.200 70.568,239.200 67.827 C 239.200 65.073,239.322 64.473,240.000 63.893 C 240.440 63.516,240.800 62.796,240.800 62.293 C 240.800 61.790,241.160 61.070,241.600 60.693 C 242.040 60.316,242.400 59.575,242.400 59.047 C 242.400 58.518,242.670 57.982,243.000 57.855 C 243.330 57.729,243.600 57.179,243.600 56.634 C 243.600 55.197,253.537 45.200,254.965 45.200 C 255.562 45.200,256.146 44.875,256.400 44.400 C 256.675 43.886,257.238 43.600,257.971 43.600 C 258.618 43.600,259.214 43.340,259.345 43.000 C 259.503 42.589,260.146 42.400,261.391 42.400 C 262.713 42.400,263.394 42.182,263.893 41.600 C 264.439 40.962,265.073 40.800,267.027 40.800 C 268.968 40.800,269.626 40.634,270.200 40.000 C 270.879 39.250,271.432 39.200,279.048 39.200 C 286.762 39.200,287.193 39.240,287.600 40.000 M103.636 41.899 L 104.800 42.997 104.800 76.899 L 104.800 110.800 125.341 110.800 L 145.881 110.800 147.141 112.003 L 148.400 113.207 148.400 121.834 L 148.400 130.462 147.231 131.631 L 146.062 132.800 114.800 132.800 L 83.538 132.800 82.369 131.631 L 81.200 130.462 81.200 86.753 L 81.200 43.044 82.275 41.922 L 83.350 40.800 92.911 40.800 L 102.472 40.800 103.636 41.899 M225.382 41.818 L 226.400 42.836 226.400 51.600 L 226.400 60.364 225.385 61.378 L 224.371 62.393 203.685 62.496 L 183.000 62.600 182.889 68.345 C 182.813 72.241,182.926 74.269,183.238 74.645 C 183.618 75.104,186.958 75.200,202.485 75.200 L 221.272 75.200 222.436 76.299 L 223.600 77.397 223.600 85.839 L 223.600 94.281 222.400 95.537 L 221.200 96.792 202.100 96.896 L 183.000 97.000 183.000 103.800 L 183.000 110.600 203.570 110.704 L 224.141 110.807 225.259 111.904 L 226.378 113.000 226.389 121.825 L 226.400 130.650 225.278 131.725 L 224.156 132.800 192.200 132.800 L 160.244 132.800 159.122 131.725 L 158.000 130.650 158.000 86.739 L 158.000 42.828 158.900 41.856 L 159.800 40.884 192.082 40.842 L 224.364 40.800 225.382 41.818 M138.031 155.969 L 139.200 157.138 139.200 164.871 L 139.200 172.603 138.036 173.701 L 136.872 174.800 117.355 174.800 L 97.838 174.800 96.519 176.078 L 95.200 177.357 95.200 182.798 C 95.200 186.497,95.354 188.394,95.680 188.720 C 96.040 189.080,100.861 189.200,114.916 189.200 L 133.672 189.200 134.836 190.299 L 136.000 191.397 136.000 200.000 L 136.000 208.603 134.836 209.701 L 133.672 210.800 114.916 210.800 C 100.861 210.800,96.040 210.920,95.680 211.280 C 95.354 211.606,95.200 213.494,95.200 217.161 L 95.200 222.562 96.478 223.881 L 97.757 225.200 118.122 225.200 L 138.487 225.200 139.437 226.100 C 140.374 226.989,140.386 227.100,140.393 235.082 L 140.400 243.164 139.382 244.182 L 138.364 245.200 106.304 245.200 L 74.244 245.200 73.122 244.125 L 72.000 243.050 72.000 200.047 L 72.000 157.044 73.075 155.922 L 74.150 154.800 105.506 154.800 L 136.862 154.800 138.031 155.969 M177.760 158.240 C 179.934 160.414,181.201 161.996,181.204 162.540 C 181.206 163.038,181.878 163.989,182.800 164.800 C 183.849 165.722,184.395 166.541,184.400 167.200 C 184.405 167.859,184.951 168.678,186.000 169.600 C 187.014 170.491,187.594 171.346,187.596 171.953 C 187.598 172.520,188.167 173.440,189.000 174.226 C 189.770 174.952,190.400 175.905,190.400 176.342 C 190.400 176.780,191.120 177.844,192.000 178.707 C 192.880 179.569,193.600 180.649,193.600 181.107 C 193.600 181.564,194.320 182.644,195.200 183.507 C 196.080 184.369,196.800 185.432,196.800 185.867 C 196.800 186.303,197.517 187.366,198.393 188.230 C 199.270 189.093,199.990 190.168,199.993 190.619 C 199.997 191.069,200.720 192.141,201.600 193.000 C 202.480 193.859,203.200 194.942,203.200 195.406 C 203.200 196.650,205.516 198.779,206.013 197.993 C 206.233 197.645,206.390 189.036,206.394 177.118 L 206.400 156.836 207.418 155.818 L 208.436 154.800 218.743 154.800 L 229.050 154.800 230.125 155.922 L 231.200 157.044 231.200 200.000 L 231.200 242.956 230.125 244.078 L 229.050 245.200 220.362 245.200 L 211.674 245.200 209.037 242.563 C 207.427 240.953,206.398 239.590,206.396 239.063 C 206.394 238.561,205.726 237.614,204.800 236.800 C 203.751 235.878,203.205 235.059,203.200 234.400 C 203.195 233.741,202.649 232.922,201.600 232.000 C 200.549 231.076,200.006 230.260,200.002 229.600 C 199.998 228.931,199.467 228.151,198.398 227.244 C 197.358 226.361,196.800 225.553,196.800 224.931 C 196.800 224.328,196.210 223.433,195.200 222.504 C 194.311 221.686,193.600 220.661,193.600 220.195 C 193.600 219.734,192.970 218.746,192.200 218.000 C 191.430 217.254,190.800 216.268,190.800 215.809 C 190.800 215.320,189.807 213.992,188.400 212.600 C 186.998 211.213,186.000 209.879,186.000 209.394 C 186.000 208.936,185.280 207.859,184.400 207.000 C 183.520 206.141,182.800 205.058,182.800 204.594 C 182.800 203.586,180.649 201.399,180.033 201.780 C 179.732 201.966,179.600 208.285,179.600 222.549 L 179.600 243.050 178.478 244.125 L 177.356 245.200 167.200 245.200 L 157.044 245.200 155.922 244.125 L 154.800 243.050 154.800 200.047 L 154.800 157.044 155.875 155.922 L 156.950 154.800 165.635 154.800 L 174.320 154.800 177.760 158.240 M300.107 155.600 C 300.603 156.179,301.287 156.400,302.582 156.400 C 303.962 156.400,304.470 156.583,304.800 157.200 C 305.067 157.699,305.638 158.000,306.318 158.000 C 306.974 158.000,307.606 158.318,307.907 158.800 C 308.219 159.300,308.840 159.600,309.561 159.600 C 310.217 159.600,310.814 159.859,310.945 160.200 C 311.071 160.530,311.612 160.800,312.146 160.800 C 313.444 160.800,322.000 169.250,322.000 170.532 C 322.000 171.019,322.620 171.975,323.400 172.690 C 324.290 173.508,324.800 174.343,324.800 174.984 C 324.800 175.560,325.143 176.208,325.600 176.493 C 326.197 176.866,326.400 177.426,326.400 178.700 C 326.400 179.913,326.632 180.606,327.200 181.093 C 327.978 181.759,328.000 182.273,328.000 200.000 C 328.000 217.727,327.978 218.241,327.200 218.907 C 326.632 219.394,326.400 220.087,326.400 221.300 C 326.400 222.574,326.197 223.134,325.600 223.507 C 325.143 223.792,324.800 224.440,324.800 225.016 C 324.800 225.657,324.290 226.492,323.400 227.310 C 322.620 228.025,322.000 228.981,322.000 229.468 C 322.000 230.750,313.444 239.200,312.146 239.200 C 311.612 239.200,311.071 239.470,310.945 239.800 C 310.814 240.141,310.217 240.400,309.561 240.400 C 308.840 240.400,308.219 240.700,307.907 241.200 C 307.606 241.682,306.974 242.000,306.318 242.000 C 305.638 242.000,305.067 242.301,304.800 242.800 C 304.470 243.417,303.962 243.600,302.582 243.600 C 301.287 243.600,300.603 243.821,300.107 244.400 C 299.436 245.184,298.927 245.200,275.075 245.200 L 250.728 245.200 249.564 244.101 L 248.400 243.003 248.400 200.035 L 248.400 157.067 249.500 155.944 L 250.600 154.822 275.011 154.811 C 298.934 154.800,299.436 154.816,300.107 155.600 M273.784 175.300 C 273.679 175.575,273.639 186.870,273.696 200.400 L 273.800 225.000 281.891 225.108 C 289.638 225.212,290.004 225.182,290.488 224.408 C 290.878 223.783,291.419 223.600,292.882 223.600 C 294.362 223.600,294.865 223.427,295.200 222.800 C 295.453 222.328,296.038 222.000,296.628 222.000 C 297.332 222.000,298.452 221.176,300.414 219.214 L 303.200 216.428 303.200 213.910 C 303.200 211.826,303.338 211.306,304.000 210.893 C 304.767 210.414,304.800 209.960,304.800 200.000 C 304.800 190.040,304.767 189.586,304.000 189.107 C 303.338 188.694,303.200 188.174,303.200 186.090 L 303.200 183.572 300.414 180.786 C 298.452 178.824,297.332 178.000,296.628 178.000 C 296.038 178.000,295.453 177.672,295.200 177.200 C 294.865 176.573,294.362 176.400,292.882 176.400 C 291.426 176.400,290.878 176.217,290.493 175.600 C 289.876 174.612,274.155 174.329,273.784 175.300 M126.086 270.685 C 127.260 271.841,128.000 272.922,128.000 273.482 C 128.000 273.983,128.360 274.618,128.800 274.893 C 129.417 275.278,129.600 275.826,129.600 277.282 C 129.600 278.762,129.773 279.265,130.400 279.600 C 130.921 279.879,131.200 280.438,131.200 281.200 C 131.200 281.962,131.479 282.521,132.000 282.800 C 132.634 283.139,132.800 283.638,132.800 285.200 C 132.800 286.762,132.966 287.261,133.600 287.600 C 134.210 287.926,134.400 288.438,134.400 289.752 C 134.400 290.968,134.636 291.689,135.200 292.200 C 135.758 292.705,136.000 293.432,136.000 294.600 C 136.000 295.768,136.242 296.495,136.800 297.000 C 137.354 297.501,137.600 298.232,137.600 299.373 C 137.600 300.527,137.840 301.228,138.400 301.707 C 138.982 302.206,139.200 302.887,139.200 304.209 C 139.200 305.454,139.389 306.097,139.800 306.255 C 140.208 306.412,140.400 307.050,140.400 308.247 C 140.400 309.513,140.625 310.200,141.200 310.693 C 141.769 311.180,142.000 311.873,142.000 313.093 C 142.000 314.313,142.231 315.006,142.800 315.493 C 143.240 315.870,143.600 316.560,143.600 317.027 C 143.600 317.494,143.960 318.202,144.400 318.600 C 144.958 319.105,145.200 319.832,145.200 321.000 C 145.200 322.168,145.442 322.895,146.000 323.400 C 146.566 323.912,146.800 324.632,146.800 325.859 C 146.800 327.160,147.000 327.718,147.600 328.093 C 148.217 328.478,148.400 329.026,148.400 330.482 C 148.400 331.962,148.573 332.465,149.200 332.800 C 149.834 333.139,150.000 333.638,150.000 335.200 C 150.000 336.762,150.166 337.261,150.800 337.600 C 151.427 337.935,151.600 338.438,151.600 339.918 C 151.600 341.374,151.783 341.922,152.400 342.307 C 153.000 342.682,153.200 343.240,153.200 344.541 C 153.200 345.768,153.434 346.488,154.000 347.000 C 154.558 347.505,154.800 348.232,154.800 349.400 C 154.800 350.568,155.042 351.295,155.600 351.800 C 156.040 352.198,156.400 352.952,156.400 353.475 C 156.400 353.997,156.670 354.529,157.000 354.655 C 158.082 355.071,157.792 358.571,156.575 359.789 L 155.550 360.814 145.875 360.707 L 136.200 360.600 136.077 359.542 C 136.010 358.959,135.605 358.167,135.177 357.780 C 134.750 357.393,134.400 356.682,134.400 356.200 C 134.400 355.718,134.040 354.998,133.600 354.600 C 133.160 354.202,132.800 353.482,132.800 353.000 C 132.800 352.518,132.440 351.798,132.000 351.400 C 131.560 351.002,131.200 350.328,131.200 349.902 C 131.200 349.476,130.706 348.604,130.101 347.964 L 129.003 346.800 111.820 346.800 L 94.638 346.800 93.319 348.078 C 92.594 348.782,92.000 349.744,92.000 350.216 C 92.000 350.689,91.640 351.402,91.200 351.800 C 90.760 352.198,90.400 352.952,90.400 353.475 C 90.400 353.997,90.130 354.529,89.800 354.655 C 89.462 354.785,89.200 355.381,89.200 356.020 C 89.200 356.684,88.883 357.377,88.435 357.691 C 88.014 357.985,87.609 358.760,87.535 359.413 L 87.400 360.600 77.629 360.707 L 67.859 360.815 66.729 359.732 C 65.290 358.353,65.099 355.496,66.400 354.800 C 66.921 354.521,67.200 353.962,67.200 353.200 C 67.200 352.438,67.479 351.879,68.000 351.600 C 68.634 351.261,68.800 350.762,68.800 349.200 C 68.800 347.638,68.966 347.139,69.600 346.800 C 70.227 346.465,70.400 345.962,70.400 344.482 C 70.400 343.026,70.583 342.478,71.200 342.093 C 71.800 341.718,72.000 341.160,72.000 339.859 C 72.000 338.632,72.234 337.912,72.800 337.400 C 73.354 336.899,73.600 336.168,73.600 335.027 C 73.600 333.873,73.840 333.172,74.400 332.693 C 74.982 332.194,75.200 331.513,75.200 330.191 C 75.200 328.946,75.389 328.303,75.800 328.145 C 76.208 327.988,76.400 327.350,76.400 326.153 C 76.400 324.887,76.625 324.200,77.200 323.707 C 77.769 323.220,78.000 322.527,78.000 321.307 C 78.000 320.087,78.231 319.394,78.800 318.907 C 79.240 318.530,79.600 317.840,79.600 317.373 C 79.600 316.906,79.960 316.198,80.400 315.800 C 80.958 315.295,81.200 314.568,81.200 313.400 C 81.200 312.232,81.442 311.505,82.000 311.000 C 82.566 310.488,82.800 309.768,82.800 308.541 C 82.800 307.240,83.000 306.682,83.600 306.307 C 84.217 305.922,84.400 305.374,84.400 303.918 C 84.400 302.438,84.573 301.935,85.200 301.600 C 85.834 301.261,86.000 300.762,86.000 299.200 C 86.000 297.638,86.166 297.139,86.800 296.800 C 87.427 296.465,87.600 295.962,87.600 294.482 C 87.600 293.026,87.783 292.478,88.400 292.093 C 89.000 291.718,89.200 291.160,89.200 289.859 C 89.200 288.632,89.434 287.912,90.000 287.400 C 90.558 286.895,90.800 286.168,90.800 285.000 C 90.800 283.832,91.042 283.105,91.600 282.600 C 92.040 282.202,92.400 281.448,92.400 280.925 C 92.400 280.403,92.670 279.871,93.000 279.745 C 93.420 279.583,93.600 278.928,93.600 277.561 C 93.600 276.040,93.777 275.496,94.400 275.107 C 94.840 274.832,95.200 274.193,95.200 273.687 C 95.200 273.129,95.950 271.993,97.100 270.809 L 99.000 268.851 111.586 268.826 L 124.173 268.800 126.086 270.685 M209.400 269.600 C 210.035 270.301,210.632 270.400,214.248 270.400 C 217.962 270.400,218.414 270.479,218.800 271.200 C 219.135 271.827,219.638 272.000,221.118 272.000 C 222.574 272.000,223.122 272.183,223.507 272.800 C 223.810 273.285,224.440 273.600,225.107 273.600 C 225.774 273.600,226.404 273.915,226.707 274.400 C 226.982 274.840,227.631 275.200,228.149 275.200 C 229.345 275.200,235.986 281.812,235.994 283.011 C 235.997 283.457,236.360 284.130,236.800 284.507 C 237.240 284.884,237.600 285.604,237.600 286.107 C 237.600 286.610,237.960 287.330,238.400 287.707 C 238.975 288.200,239.200 288.887,239.200 290.153 C 239.200 291.350,239.392 291.988,239.800 292.145 C 240.301 292.337,240.400 293.502,240.400 299.200 C 240.400 304.898,240.301 306.063,239.800 306.255 C 239.381 306.416,239.200 307.070,239.200 308.429 C 239.200 309.962,239.031 310.462,238.400 310.800 C 237.879 311.079,237.600 311.638,237.600 312.400 C 237.600 313.162,237.321 313.721,236.800 314.000 C 236.337 314.248,236.000 314.838,236.000 315.399 C 236.000 316.654,229.112 323.595,227.850 323.611 C 226.297 323.631,224.537 325.829,225.561 326.469 C 226.079 326.792,226.400 327.409,226.400 328.082 C 226.400 328.762,226.701 329.333,227.200 329.600 C 227.721 329.879,228.000 330.438,228.000 331.200 C 228.000 331.962,228.279 332.521,228.800 332.800 C 229.269 333.051,229.600 333.638,229.600 334.218 C 229.600 334.762,229.960 335.516,230.400 335.893 C 230.840 336.270,231.200 336.960,231.200 337.427 C 231.200 337.894,231.560 338.602,232.000 339.000 C 232.440 339.398,232.800 340.118,232.800 340.600 C 232.800 341.082,233.160 341.802,233.600 342.200 C 234.040 342.598,234.400 343.318,234.400 343.800 C 234.400 344.282,234.760 345.002,235.200 345.400 C 235.640 345.798,236.000 346.518,236.000 347.000 C 236.000 347.482,236.360 348.202,236.800 348.600 C 237.240 348.998,237.600 349.702,237.600 350.165 C 237.600 350.627,238.230 351.584,239.000 352.290 C 240.840 353.979,241.085 358.020,239.454 359.779 L 238.508 360.800 228.168 360.800 L 217.827 360.800 215.914 358.915 C 214.816 357.834,214.000 356.666,214.000 356.177 C 214.000 355.708,213.640 354.998,213.200 354.600 C 212.760 354.202,212.400 353.482,212.400 353.000 C 212.400 352.518,212.040 351.798,211.600 351.400 C 211.160 351.002,210.800 350.276,210.800 349.787 C 210.800 349.298,210.530 348.674,210.200 348.400 C 209.870 348.126,209.600 347.476,209.600 346.954 C 209.600 346.433,209.240 345.782,208.800 345.507 C 208.315 345.204,208.000 344.574,208.000 343.907 C 208.000 343.240,207.685 342.610,207.200 342.307 C 206.715 342.004,206.400 341.374,206.400 340.707 C 206.400 340.040,206.085 339.410,205.600 339.107 C 205.118 338.806,204.800 338.174,204.800 337.518 C 204.800 336.838,204.499 336.267,204.000 336.000 C 203.479 335.721,203.200 335.162,203.200 334.400 C 203.200 333.650,202.921 333.079,202.425 332.814 C 201.958 332.563,201.601 331.883,201.525 331.099 L 201.400 329.800 195.400 329.800 L 189.400 329.800 189.295 344.136 L 189.190 358.472 188.026 359.636 L 186.862 360.800 176.595 360.800 L 166.328 360.800 165.164 359.701 L 164.000 358.603 164.000 314.876 L 164.000 271.149 165.100 269.994 L 166.200 268.839 187.438 268.819 C 208.181 268.800,208.693 268.819,209.400 269.600 M270.400 269.600 C 270.647 270.062,271.238 270.400,271.796 270.400 C 273.048 270.400,274.800 272.159,274.800 273.415 C 274.800 273.960,275.154 274.614,275.600 274.893 C 276.082 275.194,276.400 275.826,276.400 276.482 C 276.400 277.162,276.701 277.733,277.200 278.000 C 277.721 278.279,278.000 278.838,278.000 279.600 C 278.000 280.362,278.279 280.921,278.800 281.200 C 279.321 281.479,279.600 282.038,279.600 282.800 C 279.600 283.562,279.879 284.121,280.400 284.400 C 280.899 284.667,281.200 285.238,281.200 285.918 C 281.200 286.574,281.518 287.206,282.000 287.507 C 282.440 287.782,282.800 288.427,282.800 288.941 C 282.800 289.455,283.160 290.202,283.600 290.600 C 284.040 290.998,284.400 291.718,284.400 292.200 C 284.400 292.682,284.760 293.402,285.200 293.800 C 285.640 294.198,286.000 294.918,286.000 295.400 C 286.000 295.882,286.360 296.602,286.800 297.000 C 287.240 297.398,287.600 298.118,287.600 298.600 C 287.600 299.082,287.950 299.793,288.377 300.180 C 288.805 300.567,289.210 301.359,289.277 301.942 C 289.506 303.918,292.400 303.416,292.400 301.400 C 292.400 300.904,292.670 300.274,293.000 300.000 C 293.330 299.726,293.600 299.102,293.600 298.613 C 293.600 298.124,293.960 297.398,294.400 297.000 C 294.840 296.602,295.200 295.855,295.200 295.341 C 295.200 294.827,295.560 294.182,296.000 293.907 C 296.485 293.604,296.800 292.974,296.800 292.307 C 296.800 291.640,297.115 291.010,297.600 290.707 C 298.082 290.406,298.400 289.774,298.400 289.118 C 298.400 288.438,298.701 287.867,299.200 287.600 C 299.721 287.321,300.000 286.762,300.000 286.000 C 300.000 285.238,300.279 284.679,300.800 284.400 C 301.321 284.121,301.600 283.562,301.600 282.800 C 301.600 282.038,301.879 281.479,302.400 281.200 C 302.899 280.933,303.200 280.362,303.200 279.682 C 303.200 279.026,303.518 278.394,304.000 278.093 C 304.485 277.790,304.800 277.160,304.800 276.493 C 304.800 275.826,305.115 275.196,305.600 274.893 C 306.040 274.618,306.400 273.978,306.400 273.471 C 306.400 272.320,308.350 270.400,309.518 270.400 C 310.000 270.400,310.618 270.040,310.893 269.600 C 311.370 268.836,311.826 268.800,320.927 268.800 L 330.462 268.800 331.631 269.969 C 333.558 271.897,333.362 275.289,331.200 277.400 C 330.318 278.262,329.600 279.347,329.600 279.819 C 329.600 280.290,329.240 281.002,328.800 281.400 C 328.360 281.798,328.000 282.506,328.000 282.973 C 328.000 283.440,327.640 284.130,327.200 284.507 C 326.760 284.884,326.400 285.604,326.400 286.107 C 326.400 286.610,326.040 287.330,325.600 287.707 C 325.160 288.084,324.800 288.850,324.800 289.409 C 324.800 289.968,324.530 290.529,324.200 290.655 C 323.870 290.782,323.600 291.309,323.600 291.827 C 323.600 292.395,322.965 293.398,322.000 294.353 C 321.120 295.224,320.400 296.313,320.400 296.773 C 320.400 297.232,320.040 297.916,319.600 298.293 C 319.160 298.670,318.800 299.360,318.800 299.827 C 318.800 300.294,318.440 301.002,318.000 301.400 C 317.560 301.798,317.200 302.518,317.200 303.000 C 317.200 303.482,316.840 304.202,316.400 304.600 C 315.960 304.998,315.600 305.718,315.600 306.200 C 315.600 306.682,315.240 307.402,314.800 307.800 C 314.360 308.198,314.000 308.910,314.000 309.381 C 314.000 309.853,313.282 310.938,312.400 311.800 C 311.518 312.662,310.800 313.747,310.800 314.219 C 310.800 314.690,310.440 315.402,310.000 315.800 C 309.560 316.198,309.200 316.906,309.200 317.373 C 309.200 317.840,308.840 318.530,308.400 318.907 C 307.960 319.284,307.600 320.050,307.600 320.609 C 307.600 321.168,307.330 321.729,307.000 321.855 C 306.659 321.986,306.400 322.583,306.400 323.239 C 306.400 323.960,306.100 324.581,305.600 324.893 C 305.118 325.194,304.800 325.826,304.800 326.482 C 304.800 327.162,304.499 327.733,304.000 328.000 C 303.222 328.417,303.200 328.838,303.200 343.515 L 303.200 358.603 302.036 359.701 L 300.872 360.800 290.605 360.800 L 280.338 360.800 279.169 359.631 L 278.000 358.462 278.000 343.520 C 278.000 329.073,277.973 328.555,277.200 327.893 C 276.760 327.516,276.400 326.750,276.400 326.191 C 276.400 325.632,276.130 325.071,275.800 324.945 C 275.470 324.818,275.200 324.282,275.200 323.753 C 275.200 323.225,274.840 322.484,274.400 322.107 C 273.960 321.730,273.600 321.010,273.600 320.507 C 273.600 320.004,273.240 319.284,272.800 318.907 C 272.360 318.530,272.000 317.810,272.000 317.307 C 272.000 316.804,271.640 316.084,271.200 315.707 C 270.760 315.330,270.400 314.649,270.400 314.192 C 270.400 313.736,269.680 312.659,268.800 311.800 C 267.918 310.938,267.200 309.853,267.200 309.381 C 267.200 308.910,266.840 308.198,266.400 307.800 C 265.960 307.402,265.600 306.682,265.600 306.200 C 265.600 305.718,265.240 304.998,264.800 304.600 C 264.360 304.202,264.000 303.482,264.000 303.000 C 264.000 302.518,263.640 301.798,263.200 301.400 C 262.760 301.002,262.400 300.294,262.400 299.827 C 262.400 299.360,262.040 298.670,261.600 298.293 C 261.160 297.916,260.800 297.200,260.800 296.701 C 260.800 296.176,260.210 295.253,259.400 294.510 C 258.510 293.692,258.000 292.857,258.000 292.216 C 258.000 291.640,257.657 290.992,257.200 290.707 C 256.718 290.406,256.400 289.774,256.400 289.118 C 256.400 288.438,256.099 287.867,255.600 287.600 C 255.079 287.321,254.800 286.762,254.800 286.000 C 254.800 285.238,254.521 284.679,254.000 284.400 C 253.479 284.121,253.200 283.562,253.200 282.800 C 253.200 282.038,252.921 281.479,252.400 281.200 C 251.928 280.947,251.600 280.362,251.600 279.773 C 251.600 279.121,251.046 278.266,250.000 277.304 C 247.877 275.352,247.644 271.943,249.500 269.994 L 250.600 268.839 260.286 268.819 C 269.573 268.801,269.989 268.833,270.400 269.600 M189.692 290.735 C 189.301 290.983,189.208 292.999,189.292 299.429 L 189.400 307.800 199.882 307.907 C 209.930 308.009,210.382 307.981,210.783 307.232 C 211.037 306.758,211.712 306.401,212.501 306.325 C 213.643 306.215,213.815 306.043,213.925 304.901 C 214.001 304.117,214.358 303.437,214.825 303.186 C 216.010 302.552,215.989 295.836,214.800 295.200 C 214.286 294.925,214.000 294.362,214.000 293.629 C 214.000 292.489,213.416 292.000,212.056 292.000 C 211.683 292.000,211.070 291.640,210.693 291.200 C 209.967 290.352,190.958 289.931,189.692 290.735 M111.264 297.296 C 111.009 297.551,110.800 298.134,110.800 298.591 C 110.800 299.048,110.440 299.730,110.000 300.107 C 109.431 300.594,109.200 301.287,109.200 302.507 C 109.200 303.727,108.969 304.420,108.400 304.907 C 107.825 305.400,107.600 306.087,107.600 307.353 C 107.600 308.550,107.408 309.188,107.000 309.345 C 106.589 309.503,106.400 310.146,106.400 311.391 C 106.400 312.713,106.182 313.394,105.600 313.893 C 105.040 314.372,104.800 315.073,104.800 316.227 C 104.800 317.368,104.554 318.099,104.000 318.600 C 103.442 319.105,103.200 319.832,103.200 321.000 C 103.200 322.181,102.958 322.895,102.381 323.417 C 101.871 323.879,101.607 324.543,101.681 325.179 L 101.800 326.200 111.800 326.200 L 121.800 326.200 121.925 325.119 C 122.011 324.370,121.796 323.879,121.225 323.523 C 120.581 323.120,120.400 322.593,120.400 321.118 C 120.400 319.638,120.227 319.135,119.600 318.800 C 118.966 318.461,118.800 317.962,118.800 316.400 C 118.800 314.838,118.634 314.339,118.000 314.000 C 117.390 313.674,117.200 313.162,117.200 311.848 C 117.200 310.632,116.964 309.911,116.400 309.400 C 115.842 308.895,115.600 308.168,115.600 307.000 C 115.600 305.832,115.358 305.105,114.800 304.600 C 114.242 304.095,114.000 303.368,114.000 302.200 C 114.000 301.032,113.758 300.305,113.200 299.800 C 112.760 299.402,112.400 298.665,112.400 298.162 C 112.400 297.053,111.893 296.667,111.264 297.296 " stroke="none" fill="#3c3c3c" fill-rule="evenodd"></path></g></svg>